<svg xmlns="http://www.w3.org/2000/svg"  viewBox="0 0 50 50" width="50px" height="50px"><path d="M 22 1 L 22 9 L 20 9 L 20 11 L 23.263672 11 L 11.070312 32 L 38.929688 32 L 26.736328 11 L 30 11 L 30 9 L 28 9 L 28 1 L 22 1 z M 25 19 C 30.21 19 32 23.5 32 23.5 C 32 23.5 30.25 28 25 28 C 19.75 28 18 23.5 18 23.5 C 18 23.5 19.75 19 25 19 z M 25 20 C 25 20 24 21.75 24 23.5 C 24 25.25 25 27 25 27 C 25 27 26 25.25 26 23.5 C 26 21.75 25 20 25 20 z M 4.9882812 30.988281 A 1.0001 1.0001 0 0 0 4.1679688 32.554688 C 5.4723548 34.511266 7.4255784 35.33963 8.9160156 35.705078 L 8.1601562 37 L 19 37 L 19 34 L 11 34 C 11 34 7.4906773 33.933281 5.8320312 31.445312 A 1.0001 1.0001 0 0 0 4.9882812 30.988281 z M 44.980469 30.988281 A 1.0001 1.0001 0 0 0 44.167969 31.445312 C 42.509323 33.933282 39 34 39 34 L 31 34 L 31 37 L 41.839844 37 L 41.083984 35.705078 C 42.574422 35.33963 44.527645 34.511267 45.832031 32.554688 A 1.0001 1.0001 0 0 0 44.980469 30.988281 z M 21 34 L 21 37 L 29 37 L 29 34 L 21 34 z M 7 39 L 5.2597656 42 L 13 42 L 13 39 L 7 39 z M 15 39 L 15 42 L 17.820312 42 L 17.191406 45.767578 L 14.242188 45.029297 A 1.0004596 1.0004596 0 1 0 13.757812 46.970703 L 17.757812 47.970703 A 1.0001 1.0001 0 0 0 18.986328 47.164062 L 19.847656 42 L 24 42 L 24 39 L 15 39 z M 26 39 L 26 42 L 31.152344 42 L 32.013672 47.164062 A 1.0001 1.0001 0 0 0 33.316406 47.949219 L 36.316406 46.949219 A 1.0005646 1.0005646 0 1 0 35.683594 45.050781 L 33.792969 45.681641 L 33.179688 42 L 35 42 L 35 39 L 26 39 z M 37 39 L 37 42 L 44.740234 42 L 43 39 L 37 39 z"/></svg>